<?xml version="1.0" standalone="no"?>
<!DOCTYPE svg PUBLIC "-//W3C//DTD SVG 20010904//EN"
"http://www.w3.org/TR/2001/REC-SVG-20010904/DTD/svg10.dtd">
<svg version="1.0" xmlns="http://www.w3.org/2000/svg"
  width="640.000000pt" height="640.000000pt" viewBox="0 0 640.000000 640.000000"
  preserveAspectRatio="xMidYMid meet" style="fill: white;">
  <metadata>
    Created by potrace 1.15, written by Peter Selinger 2001-2017
  </metadata>
  <g transform="translate(0.000000,640.000000) scale(0.100000,-0.100000)"
    fill="white" stroke="none">
    <path d="M3305 5821 c-3 -6 -38 -26 -78 -46 -39 -20 -108 -56 -152 -80 -44
      -23 -111 -59 -150 -79 -38 -20 -77 -40 -85 -44 -19 -11 -45 -25 -145 -77 -44
      -23 -120 -64 -170 -90 -168 -89 -280 -148 -350 -185 -38 -20 -80 -41 -92 -48
      -13 -7 -33 -17 -45 -24 -13 -7 -55 -29 -95 -49 -39 -21 -120 -64 -180 -95 -59
      -32 -128 -69 -153 -81 -54 -29 -221 -116 -385 -203 -66 -35 -139 -72 -162 -84
      -38 -17 -59 -46 -35 -46 5 0 24 -15 43 -33 19 -18 72 -67 119 -107 47 -41 97
      -87 113 -102 15 -16 30 -28 33 -28 3 0 24 -18 47 -40 23 -22 49 -47 57 -54 8
      -7 65 -57 125 -111 61 -53 112 -101 113 -106 2 -5 8 -9 14 -9 5 0 28 -18 51
      -40 23 -22 49 -46 57 -54 8 -7 62 -55 120 -106 58 -51 112 -99 120 -106 8 -8
      34 -32 57 -54 23 -22 44 -40 47 -40 3 0 18 -12 33 -28 16 -15 66 -60 113 -101
      112 -98 118 -104 167 -151 23 -22 44 -40 47 -40 3 0 18 -13 33 -28 16 -16 69
      -64 118 -107 107 -93 151 -132 180 -162 12 -13 24 -23 27 -23 3 0 34 -27 69
      -60 35 -33 68 -60 72 -60 10 0 4 34 -24 140 -47 176 -58 219 -79 300 -11 47
      -29 114 -39 150 -25 86 -40 154 -37 158 2 1 16 -2 32 -8 16 -7 47 -15 69 -20
      58 -12 113 -32 290 -102 51 -20 285 -134 340 -166 250 -142 571 -427 751 -667
      21 -27 50 -67 66 -87 15 -20 28 -41 28 -46 0 -5 9 -17 20 -27 11 -10 20 -24
      20 -30 0 -7 7 -18 15 -25 8 -7 21 -24 29 -39 15 -28 35 -64 71 -126 100 -170
      239 -498 304 -720 11 -38 30 -99 41 -134 11 -36 20 -73 20 -84 0 -10 9 -51 19
      -90 36 -133 91 -492 91 -589 0 -86 15 -67 70 87 37 104 43 121 56 165 7 25 21
      68 29 95 46 141 55 173 55 190 0 10 9 48 19 84 41 139 94 444 108 626 10 131
      10 455 0 575 -15 167 -61 407 -109 565 -33 109 -96 282 -123 335 -7 14 -33 68
      -59 120 -25 52 -57 113 -71 135 -13 22 -34 56 -45 75 -21 35 -38 62 -75 116
      -33 48 -138 188 -154 205 -9 10 -32 36 -51 60 -45 55 -283 293 -339 339 -24
      19 -50 42 -60 51 -9 8 -63 51 -121 94 -58 43 -122 91 -142 107 -20 15 -39 28
      -42 28 -5 0 -35 19 -156 100 -14 9 -32 19 -40 23 -8 4 -37 20 -65 36 -156 92
      -512 256 -632 292 -48 14 -51 24 -24 77 11 20 29 57 40 82 60 131 91 201 116
      260 29 69 49 112 89 199 15 30 26 61 26 68 0 15 -16 17 -25 4z"/>
    </g>
  </svg>
  