<?xml version="1.0" standalone="no"?>
<!DOCTYPE svg PUBLIC "-//W3C//DTD SVG 20010904//EN"
"http://www.w3.org/TR/2001/REC-SVG-20010904/DTD/svg10.dtd">
<svg version="1.0" xmlns="http://www.w3.org/2000/svg"
  width="512.000000pt" height="512.000000pt" viewBox="0 0 512.000000 512.000000"
  preserveAspectRatio="xMidYMid meet" fill="white" style="fill: white;">
  <metadata>
    Created by potrace 1.15, written by Peter Selinger 2001-2017
  </metadata>
  <g transform="translate(0.000000,512.000000) scale(0.100000,-0.100000)"
    fill="white" stroke="none">
    <path d="M2426 5038 c-46 -46 -317 -326 -602 -622 l-519 -539 -5 417 -5 418
      -33 29 c-58 52 -153 34 -186 -35 -14 -30 -16 -94 -16 -560 l0 -525 -418 -433
      c-532 -553 -492 -507 -492 -566 0 -54 17 -85 60 -107 42 -22 92 -19 128 8 17
      12 523 533 1123 1157 601 624 1095 1136 1099 1138 4 1 494 -496 1089 -1105
      595 -609 1100 -1123 1122 -1140 46 -37 91 -43 139 -18 43 22 60 53 60 108 0
      45 -4 53 -57 110 -162 172 -2261 2314 -2283 2329 -15 11 -44 18 -73 18 -47 0
      -50 -2 -131 -82z"/>
      <path d="M2513 4513 c-17 -10 -430 -427 -917 -927 -702 -720 -888 -917 -896
        -945 -14 -50 -14 -2503 0 -2553 6 -20 24 -48 41 -62 l31 -26 643 0 643 0 31
        26 c17 14 35 42 41 62 6 23 10 271 10 675 l0 637 430 0 430 0 0 -666 0 -666
        34 -34 34 -34 650 0 650 0 30 29 c16 17 32 44 36 62 12 61 7 2523 -5 2559 -14
        38 -1751 1835 -1802 1863 -17 9 -43 17 -57 17 -14 0 -39 -8 -57 -17z m994
        -1246 l682 -702 0 -1162 1 -1163 -475 0 -475 0 0 655 c0 720 2 698 -60 730
        -25 13 -111 15 -615 15 -523 0 -590 -2 -614 -16 -58 -34 -56 -3 -59 -721 l-3
        -663 -474 0 -475 0 0 1159 0 1159 815 836 815 835 128 -130 c70 -72 434 -447
        809 -832z"/>
      </g>
    </svg>
    