<?xml version="1.0" standalone="no"?>
<!DOCTYPE svg PUBLIC "-//W3C//DTD SVG 20010904//EN"
"http://www.w3.org/TR/2001/REC-SVG-20010904/DTD/svg10.dtd">
<svg version="1.0" xmlns="http://www.w3.org/2000/svg"
  width="220.000000pt" height="220.000000pt" viewBox="0 0 220.000000 220.000000"
  preserveAspectRatio="xMidYMid meet" style="fill: white;">
  <metadata>
    Created by potrace 1.15, written by Peter Selinger 2001-2017
  </metadata>
  <g transform="translate(0.000000,220.000000) scale(0.100000,-0.100000)"
    fill="white" stroke="none">
    <path d="M220 1783 c-28 -10 -70 -56 -81 -90 -14 -42 -5 -93 22 -127 46 -59 2
      -56 942 -56 l864 0 34 23 c90 60 88 181 -4 237 -31 19 -57 20 -897 19 -476 0
      -872 -3 -880 -6z"/>
      <path d="M220 1233 c-28 -10 -70 -56 -81 -90 -14 -42 -5 -93 22 -127 46 -59 2
        -56 942 -56 l864 0 34 23 c90 60 88 181 -4 237 -31 19 -57 20 -897 19 -476 0
        -872 -3 -880 -6z"/>
        <path d="M220 683 c-28 -10 -70 -56 -81 -90 -14 -42 -5 -93 22 -127 46 -59 2
          -56 942 -56 l864 0 34 23 c90 60 88 181 -4 237 -31 19 -57 20 -897 19 -476 0
          -872 -3 -880 -6z"/>
        </g>
      </svg>
      